<svg id="Layer_1" data-name="Layer 1" xmlns="http://www.w3.org/2000/svg" viewBox="0 0 243.2 163.78"><defs><style>.cls-1{fill:#010101;}.cls-2{fill:#fff;}</style></defs><path class="cls-1" d="M23.42,47.09c-2.11,1.21-4.19,2.48-6.28,3.75q-.87-3.41-1.75-6.79c2.09-1.27,4.17-2.54,6.28-3.75C22.25,42.57,22.84,44.83,23.42,47.09Z" transform="translate(-14.9 -13.11)"/><path class="cls-2" d="M29.79,43.74c-2.16,1-4.27,2.15-6.37,3.35-.58-2.26-1.17-4.52-1.75-6.79C23.76,39.1,25.88,38,28,37Z" transform="translate(-14.9 -13.11)"/><path class="cls-1" d="M36.36,41.13a55.76,55.76,0,0,0-6.57,2.61L28,37a55.76,55.76,0,0,1,6.57-2.61Z" transform="translate(-14.9 -13.11)"/><path class="cls-2" d="M43.18,39.47a49.85,49.85,0,0,0-6.82,1.66l-1.75-6.79a49.71,49.71,0,0,1,6.81-1.66Z" transform="translate(-14.9 -13.11)"/><path class="cls-1" d="M50.23,38.74a58.87,58.87,0,0,0-7,.73l-1.76-6.79A59,59,0,0,1,48.48,32Z" transform="translate(-14.9 -13.11)"/><path class="cls-2" d="M57.46,38.7c-2.42-.06-4.84-.07-7.23,0L48.48,32c2.39-.11,4.8-.1,7.23,0C56.29,34.17,56.88,36.43,57.46,38.7Z" transform="translate(-14.9 -13.11)"/><path class="cls-1" d="M64.77,39c-2.44-.08-4.87-.19-7.31-.25-.58-2.27-1.17-4.53-1.75-6.79,2.43.06,4.87.17,7.31.25C63.6,34.43,64.19,36.69,64.77,39Z" transform="translate(-14.9 -13.11)"/><path class="cls-2" d="M72,39.05c-2.41,0-4.84,0-7.27-.1-.58-2.26-1.17-4.52-1.75-6.79,2.43.09,4.85.14,7.26.1C70.87,34.52,71.45,36.79,72,39.05Z" transform="translate(-14.9 -13.11)"/><path class="cls-1" d="M79.15,38.56a67,67,0,0,1-7.11.49c-.59-2.26-1.17-4.53-1.76-6.79a67.2,67.2,0,0,0,7.12-.49Z" transform="translate(-14.9 -13.11)"/><path class="cls-2" d="M86,37.19a50,50,0,0,1-6.89,1.37L77.4,31.77a50.29,50.29,0,0,0,6.89-1.37C84.87,32.67,85.46,34.93,86,37.19Z" transform="translate(-14.9 -13.11)"/><path class="cls-1" d="M92.68,34.86A49.82,49.82,0,0,1,86,37.19c-.58-2.26-1.17-4.52-1.75-6.79a51.75,51.75,0,0,0,6.64-2.32C91.51,30.34,92.1,32.6,92.68,34.86Z" transform="translate(-14.9 -13.11)"/><path class="cls-2" d="M99.11,31.7c-2.11,1.16-4.25,2.23-6.43,3.16-.58-2.26-1.17-4.52-1.75-6.78,2.18-.94,4.32-2,6.42-3.17C97.94,27.18,98.52,29.44,99.11,31.7Z" transform="translate(-14.9 -13.11)"/><path class="cls-1" d="M105.4,28c-2.08,1.26-4.17,2.51-6.29,3.67-.59-2.26-1.17-4.52-1.76-6.79,2.12-1.16,4.21-2.41,6.3-3.67C104.23,23.51,104.82,25.77,105.4,28Z" transform="translate(-14.9 -13.11)"/><path class="cls-2" d="M25.17,53.88c-2.1,1.21-4.18,2.48-6.27,3.74l-1.76-6.78c2.09-1.27,4.17-2.54,6.28-3.75C24,49.36,24.59,51.62,25.17,53.88Z" transform="translate(-14.9 -13.11)"/><path class="cls-1" d="M31.55,50.53c-2.16,1-4.28,2.15-6.38,3.35-.58-2.26-1.17-4.52-1.75-6.79,2.1-1.2,4.21-2.34,6.37-3.35C30.38,46,31,48.26,31.55,50.53Z" transform="translate(-14.9 -13.11)"/><path class="cls-2" d="M38.12,47.92a55.08,55.08,0,0,0-6.57,2.61C31,48.26,30.38,46,29.79,43.74a55.76,55.76,0,0,1,6.57-2.61C37,43.39,37.53,45.66,38.12,47.92Z" transform="translate(-14.9 -13.11)"/><path class="cls-1" d="M44.93,46.26a48,48,0,0,0-6.81,1.66c-.59-2.26-1.17-4.53-1.76-6.79a49.85,49.85,0,0,1,6.82-1.66Z" transform="translate(-14.9 -13.11)"/><path class="cls-2" d="M52,45.53a59.09,59.09,0,0,0-7,.73l-1.75-6.79a58.87,58.87,0,0,1,7-.73C50.81,41,51.4,43.26,52,45.53Z" transform="translate(-14.9 -13.11)"/><path class="cls-1" d="M59.22,45.48c-2.43-.06-4.84-.06-7.24.05-.58-2.27-1.17-4.53-1.75-6.79,2.39-.11,4.81-.1,7.23,0Z" transform="translate(-14.9 -13.11)"/><path class="cls-2" d="M66.52,45.74c-2.43-.08-4.87-.19-7.3-.26L57.46,38.7c2.44.06,4.87.17,7.31.25C65.35,41.22,65.94,43.48,66.52,45.74Z" transform="translate(-14.9 -13.11)"/><path class="cls-1" d="M73.79,45.84c-2.41,0-4.83,0-7.27-.1-.58-2.26-1.17-4.52-1.75-6.79,2.43.09,4.86.14,7.27.1Z" transform="translate(-14.9 -13.11)"/><path class="cls-2" d="M80.91,45.35a67.2,67.2,0,0,1-7.12.49L72,39.05a67,67,0,0,0,7.11-.49C79.74,40.82,80.32,43.08,80.91,45.35Z" transform="translate(-14.9 -13.11)"/><path class="cls-1" d="M87.8,44a50.29,50.29,0,0,1-6.89,1.37c-.59-2.27-1.17-4.53-1.76-6.79A50,50,0,0,0,86,37.19C86.63,39.46,87.21,41.72,87.8,44Z" transform="translate(-14.9 -13.11)"/><path class="cls-2" d="M94.44,41.65A50.32,50.32,0,0,1,87.8,44c-.59-2.26-1.17-4.52-1.76-6.79a49.82,49.82,0,0,0,6.64-2.33C93.27,37.13,93.85,39.39,94.44,41.65Z" transform="translate(-14.9 -13.11)"/><path class="cls-1" d="M100.86,38.49a70.66,70.66,0,0,1-6.42,3.16c-.59-2.26-1.17-4.52-1.76-6.79,2.18-.93,4.32-2,6.43-3.16Z" transform="translate(-14.9 -13.11)"/><path class="cls-2" d="M107.16,34.82c-2.09,1.26-4.18,2.51-6.3,3.67L99.11,31.7c2.12-1.16,4.21-2.41,6.29-3.67Z" transform="translate(-14.9 -13.11)"/><path class="cls-1" d="M26.93,60.67c-2.11,1.21-4.19,2.48-6.28,3.74-.58-2.26-1.17-4.52-1.75-6.79,2.09-1.26,4.17-2.53,6.27-3.74Z" transform="translate(-14.9 -13.11)"/><path class="cls-2" d="M33.3,57.31c-2.16,1-4.28,2.16-6.37,3.36l-1.76-6.79c2.1-1.2,4.22-2.34,6.38-3.35Z" transform="translate(-14.9 -13.11)"/><path class="cls-1" d="M39.87,54.71a57.48,57.48,0,0,0-6.57,2.6l-1.75-6.78a55.08,55.08,0,0,1,6.57-2.61Z" transform="translate(-14.9 -13.11)"/><path class="cls-2" d="M46.69,53.05a48.43,48.43,0,0,0-6.82,1.66l-1.75-6.79a48,48,0,0,1,6.81-1.66Z" transform="translate(-14.9 -13.11)"/><path class="cls-1" d="M53.74,52.32a58.66,58.66,0,0,0-7.05.73l-1.76-6.79a59.09,59.09,0,0,1,7-.73C52.57,47.79,53.15,50.05,53.74,52.32Z" transform="translate(-14.9 -13.11)"/><path class="cls-2" d="M61,52.27c-2.42-.06-4.84-.07-7.23,0-.59-2.27-1.17-4.53-1.76-6.79,2.4-.11,4.81-.11,7.24-.05Q60.09,48.89,61,52.27Z" transform="translate(-14.9 -13.11)"/><path class="cls-1" d="M68.28,52.53c-2.44-.08-4.88-.2-7.31-.26q-.88-3.39-1.75-6.79c2.43.07,4.87.18,7.3.26Z" transform="translate(-14.9 -13.11)"/><path class="cls-2" d="M75.55,52.63c-2.41,0-4.84,0-7.27-.1l-1.76-6.79c2.44.09,4.86.14,7.27.1C74.38,48.1,75,50.36,75.55,52.63Z" transform="translate(-14.9 -13.11)"/><path class="cls-1" d="M82.66,52.14a67,67,0,0,1-7.11.49c-.59-2.27-1.17-4.53-1.76-6.79a67.2,67.2,0,0,0,7.12-.49Z" transform="translate(-14.9 -13.11)"/><path class="cls-2" d="M89.55,50.77a50,50,0,0,1-6.89,1.37l-1.75-6.79A50.29,50.29,0,0,0,87.8,44C88.38,46.25,89,48.51,89.55,50.77Z" transform="translate(-14.9 -13.11)"/><path class="cls-1" d="M96.19,48.44a51.27,51.27,0,0,1-6.64,2.33C89,48.51,88.38,46.25,87.8,44a50.32,50.32,0,0,0,6.64-2.33C95,43.92,95.61,46.18,96.19,48.44Z" transform="translate(-14.9 -13.11)"/><path class="cls-2" d="M102.62,45.28c-2.11,1.16-4.25,2.23-6.43,3.16-.58-2.26-1.17-4.52-1.75-6.79a70.66,70.66,0,0,0,6.42-3.16C101.45,40.76,102,43,102.62,45.28Z" transform="translate(-14.9 -13.11)"/><path class="cls-1" d="M108.91,41.61c-2.09,1.26-4.17,2.51-6.29,3.67-.59-2.26-1.17-4.52-1.76-6.79,2.12-1.16,4.21-2.41,6.3-3.67Z" transform="translate(-14.9 -13.11)"/><path class="cls-2" d="M28.68,67.46c-2.1,1.21-4.19,2.48-6.27,3.74l-1.76-6.79c2.09-1.26,4.17-2.53,6.28-3.74Z" transform="translate(-14.9 -13.11)"/><path class="cls-1" d="M35.06,64.1c-2.16,1-4.28,2.16-6.38,3.36l-1.75-6.79c2.09-1.2,4.21-2.34,6.37-3.36C33.89,59.58,34.47,61.84,35.06,64.1Z" transform="translate(-14.9 -13.11)"/><path class="cls-2" d="M41.63,61.5a54.36,54.36,0,0,0-6.57,2.6c-.59-2.26-1.17-4.52-1.76-6.79a57.48,57.48,0,0,1,6.57-2.6C40.46,57,41,59.23,41.63,61.5Z" transform="translate(-14.9 -13.11)"/><path class="cls-1" d="M48.44,59.84a48,48,0,0,0-6.81,1.66C41,59.23,40.46,57,39.87,54.71a48.43,48.43,0,0,1,6.82-1.66C47.27,55.31,47.85,57.58,48.44,59.84Z" transform="translate(-14.9 -13.11)"/><path class="cls-2" d="M55.49,59.11a59.09,59.09,0,0,0-7.05.73c-.59-2.26-1.17-4.53-1.75-6.79a58.66,58.66,0,0,1,7.05-.73Z" transform="translate(-14.9 -13.11)"/><path class="cls-1" d="M62.72,59.06c-2.42-.06-4.83-.07-7.23,0l-1.75-6.79c2.39-.12,4.81-.11,7.23,0C61.55,54.54,62.14,56.8,62.72,59.06Z" transform="translate(-14.9 -13.11)"/><path class="cls-2" d="M70,59.32c-2.44-.08-4.87-.2-7.31-.26-.58-2.26-1.17-4.52-1.75-6.79,2.43.06,4.87.18,7.31.26Z" transform="translate(-14.9 -13.11)"/><path class="cls-1" d="M77.3,59.42c-2.41,0-4.84,0-7.27-.1l-1.75-6.79c2.43.09,4.86.14,7.27.1Q76.42,56,77.3,59.42Z" transform="translate(-14.9 -13.11)"/><path class="cls-2" d="M84.41,58.93a69.76,69.76,0,0,1-7.11.49q-.89-3.41-1.75-6.79a67,67,0,0,0,7.11-.49Q83.55,55.53,84.41,58.93Z" transform="translate(-14.9 -13.11)"/><path class="cls-1" d="M91.3,57.56a49.7,49.7,0,0,1-6.89,1.37q-.87-3.41-1.75-6.79a50,50,0,0,0,6.89-1.37Z" transform="translate(-14.9 -13.11)"/><path class="cls-2" d="M98,55.23a51.41,51.41,0,0,1-6.65,2.33l-1.75-6.79a51.27,51.27,0,0,0,6.64-2.33Z" transform="translate(-14.9 -13.11)"/><path class="cls-1" d="M104.37,52.07c-2.11,1.16-4.24,2.23-6.42,3.16l-1.76-6.79c2.18-.93,4.32-2,6.43-3.16Z" transform="translate(-14.9 -13.11)"/><path class="cls-2" d="M110.66,48.4c-2.08,1.26-4.17,2.51-6.29,3.67l-1.75-6.79c2.12-1.16,4.2-2.41,6.29-3.67Z" transform="translate(-14.9 -13.11)"/><path class="cls-1" d="M30.44,74.25c-2.11,1.21-4.19,2.48-6.28,3.74-.58-2.26-1.17-4.52-1.75-6.79,2.08-1.26,4.17-2.53,6.27-3.74C29.27,69.72,29.85,72,30.44,74.25Z" transform="translate(-14.9 -13.11)"/><path class="cls-2" d="M36.81,70.89c-2.16,1-4.28,2.16-6.37,3.36-.59-2.26-1.17-4.53-1.76-6.79,2.1-1.2,4.22-2.34,6.38-3.36C35.64,66.37,36.23,68.63,36.81,70.89Z" transform="translate(-14.9 -13.11)"/><path class="cls-1" d="M43.38,68.29a55.7,55.7,0,0,0-6.57,2.6c-.58-2.26-1.17-4.52-1.75-6.79a54.36,54.36,0,0,1,6.57-2.6C42.21,63.76,42.8,66,43.38,68.29Z" transform="translate(-14.9 -13.11)"/><path class="cls-2" d="M50.19,66.63a48.29,48.29,0,0,0-6.81,1.66c-.58-2.27-1.17-4.53-1.75-6.79a48,48,0,0,1,6.81-1.66C49,62.1,49.61,64.36,50.19,66.63Z" transform="translate(-14.9 -13.11)"/><path class="cls-1" d="M57.25,65.89a61.18,61.18,0,0,0-7.06.74c-.58-2.27-1.17-4.53-1.75-6.79a59.09,59.09,0,0,1,7.05-.73C56.08,61.37,56.66,63.63,57.25,65.89Z" transform="translate(-14.9 -13.11)"/><path class="cls-2" d="M64.48,65.85c-2.43-.06-4.84-.07-7.23,0-.59-2.26-1.17-4.52-1.76-6.78,2.4-.12,4.81-.11,7.23,0Z" transform="translate(-14.9 -13.11)"/><path class="cls-1" d="M71.79,66.11c-2.44-.09-4.88-.2-7.31-.26l-1.76-6.79c2.44.06,4.87.18,7.31.26Z" transform="translate(-14.9 -13.11)"/><path class="cls-2" d="M79.05,66.2c-2.41,0-4.83,0-7.26-.09L70,59.32c2.43.08,4.86.14,7.27.1C77.88,61.68,78.47,63.94,79.05,66.2Z" transform="translate(-14.9 -13.11)"/><path class="cls-1" d="M86.17,65.71a64.48,64.48,0,0,1-7.12.49c-.58-2.26-1.17-4.52-1.75-6.78a69.76,69.76,0,0,0,7.11-.49C85,61.19,85.58,63.45,86.17,65.71Z" transform="translate(-14.9 -13.11)"/><path class="cls-2" d="M93.06,64.35a48.8,48.8,0,0,1-6.89,1.36c-.59-2.26-1.17-4.52-1.76-6.78a49.7,49.7,0,0,0,6.89-1.37C91.89,59.82,92.47,62.09,93.06,64.35Z" transform="translate(-14.9 -13.11)"/><path class="cls-1" d="M99.7,62a51.8,51.8,0,0,1-6.64,2.33c-.59-2.26-1.17-4.53-1.76-6.79A51.41,51.41,0,0,0,98,55.23Q98.82,58.64,99.7,62Z" transform="translate(-14.9 -13.11)"/><path class="cls-2" d="M106.12,58.86A70.66,70.66,0,0,1,99.7,62q-.89-3.39-1.75-6.79c2.18-.93,4.31-2,6.42-3.16C105,54.33,105.54,56.6,106.12,58.86Z" transform="translate(-14.9 -13.11)"/><path class="cls-1" d="M112.42,55.19c-2.09,1.26-4.18,2.51-6.3,3.67-.58-2.26-1.16-4.53-1.75-6.79,2.12-1.16,4.21-2.41,6.29-3.67C111.25,50.66,111.83,52.93,112.42,55.19Z" transform="translate(-14.9 -13.11)"/><path class="cls-2" d="M32.19,81c-2.11,1.21-4.19,2.48-6.28,3.74-.58-2.26-1.16-4.53-1.75-6.79,2.09-1.26,4.17-2.53,6.28-3.74Z" transform="translate(-14.9 -13.11)"/><path class="cls-1" d="M38.56,77.68c-2.16,1-4.27,2.15-6.37,3.36l-1.75-6.79c2.09-1.2,4.21-2.34,6.37-3.36Z" transform="translate(-14.9 -13.11)"/><path class="cls-2" d="M45.13,75.08a54,54,0,0,0-6.57,2.6l-1.75-6.79a55.7,55.7,0,0,1,6.57-2.6C44,70.55,44.55,72.81,45.13,75.08Z" transform="translate(-14.9 -13.11)"/><path class="cls-1" d="M52,73.42a48.43,48.43,0,0,0-6.82,1.66c-.58-2.27-1.17-4.53-1.75-6.79a48.29,48.29,0,0,1,6.81-1.66C50.78,68.89,51.36,71.15,52,73.42Z" transform="translate(-14.9 -13.11)"/><path class="cls-2" d="M59,72.68a56.9,56.9,0,0,0-7,.74c-.59-2.27-1.17-4.53-1.76-6.79a61.18,61.18,0,0,1,7.06-.74Z" transform="translate(-14.9 -13.11)"/><path class="cls-1" d="M66.23,72.64c-2.42-.06-4.84-.07-7.23,0l-1.75-6.79c2.39-.11,4.8-.1,7.23,0C65.06,68.12,65.65,70.38,66.23,72.64Z" transform="translate(-14.9 -13.11)"/><path class="cls-2" d="M73.54,72.9c-2.44-.09-4.87-.2-7.31-.26-.58-2.26-1.17-4.52-1.75-6.79,2.43.06,4.87.17,7.31.26Z" transform="translate(-14.9 -13.11)"/><path class="cls-1" d="M80.81,73C78.4,73,76,73,73.54,72.9l-1.75-6.79c2.43.08,4.85.14,7.26.09C79.64,68.47,80.22,70.73,80.81,73Z" transform="translate(-14.9 -13.11)"/><path class="cls-2" d="M87.92,72.5a64.47,64.47,0,0,1-7.11.49c-.59-2.26-1.17-4.52-1.76-6.79a64.48,64.48,0,0,0,7.12-.49Z" transform="translate(-14.9 -13.11)"/><path class="cls-1" d="M94.81,71.14a48.53,48.53,0,0,1-6.89,1.36l-1.75-6.79a48.8,48.8,0,0,0,6.89-1.36Z" transform="translate(-14.9 -13.11)"/><path class="cls-2" d="M101.45,68.81a50.75,50.75,0,0,1-6.64,2.33l-1.75-6.79A51.8,51.8,0,0,0,99.7,62Z" transform="translate(-14.9 -13.11)"/><path class="cls-1" d="M107.88,65.65c-2.11,1.16-4.25,2.23-6.43,3.16L99.7,62a70.66,70.66,0,0,0,6.42-3.16C106.71,61.12,107.29,63.39,107.88,65.65Z" transform="translate(-14.9 -13.11)"/><path class="cls-2" d="M114.17,62c-2.08,1.26-4.17,2.5-6.29,3.67-.59-2.26-1.17-4.53-1.76-6.79,2.12-1.16,4.21-2.41,6.3-3.67C113,57.45,113.59,59.71,114.17,62Z" transform="translate(-14.9 -13.11)"/><path class="cls-1" d="M33.94,87.83c-2.1,1.21-4.18,2.48-6.27,3.74-.59-2.26-1.17-4.53-1.76-6.79C28,83.52,30.08,82.25,32.19,81,32.77,83.3,33.36,85.56,33.94,87.83Z" transform="translate(-14.9 -13.11)"/><path class="cls-2" d="M40.32,84.47c-2.16,1-4.28,2.15-6.38,3.36-.58-2.27-1.17-4.53-1.75-6.79,2.1-1.21,4.21-2.34,6.37-3.36C39.15,79.94,39.73,82.21,40.32,84.47Z" transform="translate(-14.9 -13.11)"/><path class="cls-1" d="M46.89,81.86a55.08,55.08,0,0,0-6.57,2.61c-.59-2.26-1.17-4.53-1.76-6.79a54,54,0,0,1,6.57-2.6Z" transform="translate(-14.9 -13.11)"/><path class="cls-2" d="M53.7,80.21a49.33,49.33,0,0,0-6.81,1.65l-1.76-6.78A48.43,48.43,0,0,1,52,73.42C52.53,75.68,53.12,77.94,53.7,80.21Z" transform="translate(-14.9 -13.11)"/><path class="cls-1" d="M60.75,79.47a57.1,57.1,0,0,0-7,.74c-.58-2.27-1.17-4.53-1.75-6.79a56.9,56.9,0,0,1,7-.74Q59.89,76.09,60.75,79.47Z" transform="translate(-14.9 -13.11)"/><path class="cls-2" d="M68,79.43c-2.43-.06-4.84-.07-7.24,0q-.87-3.39-1.75-6.79c2.39-.11,4.81-.1,7.23,0C66.82,74.9,67.4,77.17,68,79.43Z" transform="translate(-14.9 -13.11)"/><path class="cls-1" d="M75.29,79.69c-2.43-.09-4.87-.2-7.3-.26-.59-2.26-1.17-4.53-1.76-6.79,2.44.06,4.87.17,7.31.26Q74.42,76.29,75.29,79.69Z" transform="translate(-14.9 -13.11)"/><path class="cls-2" d="M82.56,79.78c-2.41,0-4.83,0-7.27-.09q-.87-3.41-1.75-6.79C76,73,78.4,73,80.81,73,81.39,75.26,82,77.52,82.56,79.78Z" transform="translate(-14.9 -13.11)"/><path class="cls-1" d="M89.68,79.29a64.65,64.65,0,0,1-7.12.49C82,77.52,81.39,75.26,80.81,73a64.47,64.47,0,0,0,7.11-.49C88.51,74.77,89.09,77,89.68,79.29Z" transform="translate(-14.9 -13.11)"/><path class="cls-2" d="M96.57,77.93a50.26,50.26,0,0,1-6.89,1.36c-.59-2.26-1.17-4.52-1.76-6.79a48.53,48.53,0,0,0,6.89-1.36C95.4,73.4,96,75.66,96.57,77.93Z" transform="translate(-14.9 -13.11)"/><path class="cls-1" d="M103.21,75.6a53.38,53.38,0,0,1-6.64,2.33c-.59-2.27-1.17-4.53-1.76-6.79a50.75,50.75,0,0,0,6.64-2.33C102,71.07,102.62,73.34,103.21,75.6Z" transform="translate(-14.9 -13.11)"/><path class="cls-2" d="M109.63,72.44a70.66,70.66,0,0,1-6.42,3.16c-.59-2.26-1.17-4.53-1.76-6.79,2.18-.93,4.32-2,6.43-3.16Z" transform="translate(-14.9 -13.11)"/><path class="cls-1" d="M115.93,68.77c-2.09,1.26-4.18,2.5-6.3,3.67l-1.75-6.79c2.12-1.17,4.21-2.41,6.29-3.67C114.76,64.24,115.34,66.5,115.93,68.77Z" transform="translate(-14.9 -13.11)"/><path class="cls-1" d="M103.92,20.58l-.49.3c-1.89,1.14-4.09,2.46-6.28,3.66a69,69,0,0,1-6.39,3.14A50.66,50.66,0,0,1,84.18,30a49.87,49.87,0,0,1-6.84,1.36,65.54,65.54,0,0,1-7.07.48c-2.57.05-5.1,0-7.24-.09l-2.54-.1c-1.56-.06-3.18-.12-4.77-.16-2.82-.07-5.13-.06-7.26,0a60.9,60.9,0,0,0-7.11.74,48.49,48.49,0,0,0-6.87,1.68,56,56,0,0,0-6.62,2.62c-1.95.92-4.05,2-6.41,3.37-1.79,1-3.6,2.12-5.34,3.18l-1.21.74L27.4,92.23l1.43-.86c1.74-1.06,3.54-2.15,5.33-3.17,2.33-1.34,4.41-2.44,6.34-3.34A54.47,54.47,0,0,1,47,82.27a48.14,48.14,0,0,1,6.75-1.64,55.3,55.3,0,0,1,7-.73c2.12-.1,4.41-.11,7.2,0,1.59,0,3.2.1,4.76.16l2.55.09c2.15.08,4.69.15,7.29.1a67.17,67.17,0,0,0,7.16-.49A51.21,51.21,0,0,0,96,78.51l.65-.17A51.84,51.84,0,0,0,103.37,76c2-.87,4.15-1.91,6.47-3.18s4.41-2.54,6.31-3.68l.27-.16Zm5.51,51.49c-2.27,1.24-4.34,2.26-6.33,3.11l-.06,0a53.24,53.24,0,0,1-6.58,2.31h0a50.16,50.16,0,0,1-6.84,1.35h-.05a67.39,67.39,0,0,1-7,.48h-.1c-2.54,0-5,0-7.14-.1h-.13l-2.41-.1C71.2,79.11,69.58,79,68,79h-.12c-2.77-.07-5,0-7.14,0h-.09a57.49,57.49,0,0,0-7,.74h0c-1.39.23-2.76.53-4.12.88-.91.23-1.81.5-2.7.78h0a54.84,54.84,0,0,0-6.55,2.59l-.07,0c-1.93.9-4,2-6.31,3.31l-.1.06c-1.79,1-3.6,2.12-5.34,3.18l-.45.27L26.3,84.55l-1.76-6.79L22.79,71,21,64.18l-1.75-6.79-1.75-6.78-1.65-6.36.67-.41c1.71-1,3.47-2.1,5.23-3.1a.33.33,0,0,1,.1-.06c2.31-1.33,4.36-2.41,6.27-3.31l.07,0a54,54,0,0,1,6.5-2.57h0a48.17,48.17,0,0,1,6.75-1.65h0a56.79,56.79,0,0,1,7-.72h.1c2.09-.09,4.35-.11,7.11,0h.12c1.54,0,3.12.09,4.64.16l2.54.09h.13c2.12.08,4.62.14,7.16.1h.1a65.41,65.41,0,0,0,7.06-.49h.06a52,52,0,0,0,6.88-1.37h0A52.58,52.58,0,0,0,91,28.49l.06,0c2-.86,4.08-1.88,6.36-3.13l.1-.05c2-1.11,4-2.31,5.82-3.38L105,28.26l1.76,6.79,1.75,6.79,1.75,6.79L112,55.42l1.75,6.79,1.65,6.36c-1.8,1.08-3.86,2.31-5.92,3.44Z" transform="translate(-14.9 -13.11)"/><polygon class="cls-1" points="93.69 4.83 115.59 89.61 113.09 89.61 91.34 5.42 91.02 4.16 93.36 3.55 93.69 4.83"/><polygon class="cls-1" points="134.59 163.18 132.25 163.78 123.54 130.07 126.04 130.07 134.59 163.18"/><path class="cls-1" d="M109.47,15.16a2.74,2.74,0,1,1-3.34-2A2.74,2.74,0,0,1,109.47,15.16Z" transform="translate(-14.9 -13.11)"/><path class="cls-1" d="M249.58,47.09c2.11,1.21,4.19,2.48,6.28,3.75.58-2.27,1.17-4.53,1.75-6.79-2.09-1.27-4.17-2.54-6.28-3.75Z" transform="translate(-14.9 -13.11)"/><path class="cls-2" d="M243.21,43.74c2.16,1,4.27,2.15,6.37,3.35l1.75-6.79C249.24,39.1,247.12,38,245,37Z" transform="translate(-14.9 -13.11)"/><path class="cls-1" d="M236.64,41.13a55.76,55.76,0,0,1,6.57,2.61L245,37a55.76,55.76,0,0,0-6.57-2.61Z" transform="translate(-14.9 -13.11)"/><path class="cls-2" d="M229.82,39.47a49.85,49.85,0,0,1,6.82,1.66l1.75-6.79a49.71,49.71,0,0,0-6.81-1.66C231,35,230.41,37.21,229.82,39.47Z" transform="translate(-14.9 -13.11)"/><path class="cls-1" d="M222.77,38.74a58.87,58.87,0,0,1,7,.73c.59-2.26,1.17-4.52,1.76-6.79a59,59,0,0,0-7.06-.73Z" transform="translate(-14.9 -13.11)"/><path class="cls-2" d="M215.54,38.7c2.42-.06,4.84-.07,7.23,0L224.52,32c-2.39-.11-4.8-.1-7.23,0C216.71,34.17,216.12,36.43,215.54,38.7Z" transform="translate(-14.9 -13.11)"/><path class="cls-1" d="M208.23,39c2.44-.08,4.88-.19,7.31-.25.58-2.27,1.17-4.53,1.75-6.79-2.43.06-4.87.17-7.31.25Q209.11,35.57,208.23,39Z" transform="translate(-14.9 -13.11)"/><path class="cls-2" d="M201,39.05c2.41,0,4.84,0,7.27-.1q.89-3.39,1.75-6.79c-2.43.09-4.85.14-7.26.1C202.13,34.52,201.55,36.79,201,39.05Z" transform="translate(-14.9 -13.11)"/><path class="cls-1" d="M193.85,38.56a67,67,0,0,0,7.11.49c.59-2.26,1.17-4.53,1.76-6.79a67.2,67.2,0,0,1-7.12-.49Z" transform="translate(-14.9 -13.11)"/><path class="cls-2" d="M187,37.19a50,50,0,0,0,6.89,1.37l1.75-6.79a50.29,50.29,0,0,1-6.89-1.37C188.13,32.67,187.54,34.93,187,37.19Z" transform="translate(-14.9 -13.11)"/><path class="cls-1" d="M180.32,34.86A49.82,49.82,0,0,0,187,37.19c.58-2.26,1.17-4.52,1.75-6.79a51.75,51.75,0,0,1-6.64-2.32C181.49,30.34,180.9,32.6,180.32,34.86Z" transform="translate(-14.9 -13.11)"/><path class="cls-2" d="M173.89,31.7c2.11,1.16,4.25,2.23,6.43,3.16.58-2.26,1.17-4.52,1.75-6.78-2.18-.94-4.32-2-6.42-3.17C175.06,27.18,174.48,29.44,173.89,31.7Z" transform="translate(-14.9 -13.11)"/><path class="cls-1" d="M167.6,28c2.08,1.26,4.17,2.51,6.29,3.67.59-2.26,1.17-4.52,1.76-6.79-2.12-1.16-4.21-2.41-6.3-3.67C168.77,23.51,168.18,25.77,167.6,28Z" transform="translate(-14.9 -13.11)"/><path class="cls-2" d="M247.83,53.88c2.1,1.21,4.18,2.48,6.27,3.74l1.76-6.78c-2.09-1.27-4.17-2.54-6.28-3.75C249,49.36,248.41,51.62,247.83,53.88Z" transform="translate(-14.9 -13.11)"/><path class="cls-1" d="M241.45,50.53c2.16,1,4.28,2.15,6.38,3.35.58-2.26,1.17-4.52,1.75-6.79-2.1-1.2-4.21-2.34-6.37-3.35C242.62,46,242,48.26,241.45,50.53Z" transform="translate(-14.9 -13.11)"/><path class="cls-2" d="M234.88,47.92a54.42,54.42,0,0,1,6.57,2.61c.59-2.27,1.17-4.53,1.76-6.79a55.76,55.76,0,0,0-6.57-2.61C236.05,43.39,235.47,45.66,234.88,47.92Z" transform="translate(-14.9 -13.11)"/><path class="cls-1" d="M228.07,46.26a48,48,0,0,1,6.81,1.66c.59-2.26,1.17-4.53,1.76-6.79a49.85,49.85,0,0,0-6.82-1.66Z" transform="translate(-14.9 -13.11)"/><path class="cls-2" d="M221,45.53a59.09,59.09,0,0,1,7,.73l1.75-6.79a58.87,58.87,0,0,0-7-.73C222.19,41,221.6,43.26,221,45.53Z" transform="translate(-14.9 -13.11)"/><path class="cls-1" d="M213.78,45.48c2.43-.06,4.84-.06,7.24.05.58-2.27,1.17-4.53,1.75-6.79-2.39-.11-4.81-.1-7.23,0Z" transform="translate(-14.9 -13.11)"/><path class="cls-2" d="M206.48,45.74c2.43-.08,4.87-.19,7.3-.26l1.76-6.78c-2.43.06-4.87.17-7.31.25C207.65,41.22,207.06,43.48,206.48,45.74Z" transform="translate(-14.9 -13.11)"/><path class="cls-1" d="M199.21,45.84c2.41,0,4.83,0,7.27-.1.58-2.26,1.17-4.52,1.75-6.79-2.43.09-4.86.14-7.27.1Z" transform="translate(-14.9 -13.11)"/><path class="cls-2" d="M192.09,45.35a67.38,67.38,0,0,0,7.12.49L201,39.05a67,67,0,0,1-7.11-.49C193.26,40.82,192.68,43.08,192.09,45.35Z" transform="translate(-14.9 -13.11)"/><path class="cls-1" d="M185.2,44a50.29,50.29,0,0,0,6.89,1.37c.59-2.27,1.17-4.53,1.76-6.79A50,50,0,0,1,187,37.19C186.37,39.46,185.79,41.72,185.2,44Z" transform="translate(-14.9 -13.11)"/><path class="cls-2" d="M178.56,41.65A50.32,50.32,0,0,0,185.2,44c.59-2.26,1.17-4.52,1.76-6.79a49.82,49.82,0,0,1-6.64-2.33Z" transform="translate(-14.9 -13.11)"/><path class="cls-1" d="M172.14,38.49c2.11,1.16,4.24,2.23,6.42,3.16l1.76-6.79c-2.18-.93-4.32-2-6.43-3.16C173.31,34,172.72,36.23,172.14,38.49Z" transform="translate(-14.9 -13.11)"/><path class="cls-2" d="M165.84,34.82c2.09,1.26,4.18,2.51,6.3,3.67.58-2.26,1.17-4.52,1.75-6.79-2.12-1.16-4.21-2.41-6.29-3.67Z" transform="translate(-14.9 -13.11)"/><path class="cls-1" d="M246.07,60.67c2.11,1.21,4.19,2.48,6.28,3.74.58-2.26,1.17-4.52,1.75-6.79-2.09-1.26-4.17-2.53-6.27-3.74Z" transform="translate(-14.9 -13.11)"/><path class="cls-2" d="M239.7,57.31c2.16,1,4.28,2.16,6.37,3.36l1.76-6.79c-2.1-1.2-4.22-2.34-6.38-3.35C240.87,52.79,240.28,55.05,239.7,57.31Z" transform="translate(-14.9 -13.11)"/><path class="cls-1" d="M233.13,54.71a57.48,57.48,0,0,1,6.57,2.6c.58-2.26,1.17-4.52,1.75-6.78a54.42,54.42,0,0,0-6.57-2.61Z" transform="translate(-14.9 -13.11)"/><path class="cls-2" d="M226.31,53.05a48.43,48.43,0,0,1,6.82,1.66l1.75-6.79a48,48,0,0,0-6.81-1.66Z" transform="translate(-14.9 -13.11)"/><path class="cls-1" d="M219.26,52.32a58.66,58.66,0,0,1,7.05.73l1.76-6.79a59.09,59.09,0,0,0-7-.73C220.43,47.79,219.85,50.05,219.26,52.32Z" transform="translate(-14.9 -13.11)"/><path class="cls-2" d="M212,52.27c2.43-.06,4.84-.07,7.23,0,.59-2.27,1.17-4.53,1.76-6.79-2.4-.11-4.81-.11-7.24-.05Q212.91,48.89,212,52.27Z" transform="translate(-14.9 -13.11)"/><path class="cls-1" d="M204.72,52.53c2.44-.08,4.88-.2,7.31-.26q.89-3.39,1.75-6.79c-2.43.07-4.87.18-7.3.26Z" transform="translate(-14.9 -13.11)"/><path class="cls-2" d="M197.46,52.63c2.41,0,4.83,0,7.26-.1l1.76-6.79c-2.44.09-4.86.14-7.27.1Q198.33,49.23,197.46,52.63Z" transform="translate(-14.9 -13.11)"/><path class="cls-1" d="M190.34,52.14a67,67,0,0,0,7.12.49q.87-3.41,1.75-6.79a67.38,67.38,0,0,1-7.12-.49C191.51,47.61,190.92,49.87,190.34,52.14Z" transform="translate(-14.9 -13.11)"/><path class="cls-2" d="M183.45,50.77a50,50,0,0,0,6.89,1.37c.58-2.27,1.17-4.53,1.75-6.79A50.29,50.29,0,0,1,185.2,44C184.62,46.25,184,48.51,183.45,50.77Z" transform="translate(-14.9 -13.11)"/><path class="cls-1" d="M176.81,48.44a51.27,51.27,0,0,0,6.64,2.33c.58-2.26,1.17-4.52,1.75-6.79a50.32,50.32,0,0,1-6.64-2.33C178,43.92,177.39,46.18,176.81,48.44Z" transform="translate(-14.9 -13.11)"/><path class="cls-2" d="M170.38,45.28c2.11,1.16,4.25,2.23,6.43,3.16.58-2.26,1.17-4.52,1.75-6.79-2.18-.93-4.31-2-6.42-3.16C171.55,40.76,171,43,170.38,45.28Z" transform="translate(-14.9 -13.11)"/><path class="cls-1" d="M164.09,41.61c2.09,1.26,4.17,2.51,6.29,3.67.59-2.26,1.17-4.52,1.76-6.79-2.12-1.16-4.21-2.41-6.3-3.67Z" transform="translate(-14.9 -13.11)"/><path class="cls-2" d="M244.32,67.46c2.11,1.21,4.19,2.48,6.27,3.74l1.76-6.79c-2.09-1.26-4.17-2.53-6.28-3.74Z" transform="translate(-14.9 -13.11)"/><path class="cls-1" d="M237.94,64.1c2.16,1,4.28,2.16,6.38,3.36l1.75-6.79c-2.09-1.2-4.21-2.34-6.37-3.36C239.11,59.58,238.53,61.84,237.94,64.1Z" transform="translate(-14.9 -13.11)"/><path class="cls-2" d="M231.37,61.5a54.36,54.36,0,0,1,6.57,2.6c.59-2.26,1.17-4.52,1.76-6.79a57.48,57.48,0,0,0-6.57-2.6C232.54,57,232,59.23,231.37,61.5Z" transform="translate(-14.9 -13.11)"/><path class="cls-1" d="M224.56,59.84a48,48,0,0,1,6.81,1.66c.59-2.27,1.17-4.53,1.76-6.79a48.43,48.43,0,0,0-6.82-1.66C225.73,55.31,225.15,57.58,224.56,59.84Z" transform="translate(-14.9 -13.11)"/><path class="cls-2" d="M217.51,59.11a58.87,58.87,0,0,1,7.05.73c.59-2.26,1.17-4.53,1.75-6.79a58.66,58.66,0,0,0-7.05-.73Z" transform="translate(-14.9 -13.11)"/><path class="cls-1" d="M210.28,59.06c2.42-.06,4.83-.07,7.23,0l1.75-6.79c-2.39-.12-4.8-.11-7.23,0C211.45,54.54,210.86,56.8,210.28,59.06Z" transform="translate(-14.9 -13.11)"/><path class="cls-2" d="M203,59.32c2.44-.08,4.87-.2,7.31-.26.58-2.26,1.17-4.52,1.75-6.79-2.43.06-4.87.18-7.31.26Z" transform="translate(-14.9 -13.11)"/><path class="cls-1" d="M195.7,59.42c2.41,0,4.84,0,7.27-.1l1.75-6.79c-2.43.09-4.85.14-7.26.1Z" transform="translate(-14.9 -13.11)"/><path class="cls-2" d="M188.59,58.93a69.76,69.76,0,0,0,7.11.49l1.76-6.79a67,67,0,0,1-7.12-.49Q189.46,55.53,188.59,58.93Z" transform="translate(-14.9 -13.11)"/><path class="cls-1" d="M181.7,57.56a49.7,49.7,0,0,0,6.89,1.37q.87-3.41,1.75-6.79a50,50,0,0,1-6.89-1.37Z" transform="translate(-14.9 -13.11)"/><path class="cls-2" d="M175.06,55.23a50.75,50.75,0,0,0,6.64,2.33l1.75-6.79a51.27,51.27,0,0,1-6.64-2.33Z" transform="translate(-14.9 -13.11)"/><path class="cls-1" d="M168.63,52.07a70.83,70.83,0,0,0,6.43,3.16l1.75-6.79c-2.18-.93-4.32-2-6.43-3.16Z" transform="translate(-14.9 -13.11)"/><path class="cls-2" d="M162.34,48.4c2.08,1.26,4.17,2.51,6.29,3.67l1.75-6.79c-2.12-1.16-4.2-2.41-6.29-3.67Z" transform="translate(-14.9 -13.11)"/><path class="cls-1" d="M242.56,74.25c2.11,1.21,4.19,2.48,6.28,3.74.58-2.26,1.17-4.52,1.75-6.79-2.08-1.26-4.16-2.53-6.27-3.74C243.73,69.72,243.15,72,242.56,74.25Z" transform="translate(-14.9 -13.11)"/><path class="cls-2" d="M236.19,70.89c2.16,1,4.28,2.16,6.37,3.36.59-2.26,1.17-4.53,1.76-6.79-2.1-1.2-4.22-2.34-6.38-3.36C237.36,66.37,236.77,68.63,236.19,70.89Z" transform="translate(-14.9 -13.11)"/><path class="cls-1" d="M229.62,68.29a55.7,55.7,0,0,1,6.57,2.6c.58-2.26,1.17-4.52,1.75-6.79a54.36,54.36,0,0,0-6.57-2.6Z" transform="translate(-14.9 -13.11)"/><path class="cls-2" d="M222.81,66.63a48.29,48.29,0,0,1,6.81,1.66l1.75-6.79a48,48,0,0,0-6.81-1.66Z" transform="translate(-14.9 -13.11)"/><path class="cls-1" d="M215.75,65.89a61.18,61.18,0,0,1,7.06.74l1.75-6.79a58.87,58.87,0,0,0-7.05-.73C216.92,61.37,216.34,63.63,215.75,65.89Z" transform="translate(-14.9 -13.11)"/><path class="cls-2" d="M208.52,65.85c2.43-.06,4.84-.07,7.23,0,.59-2.26,1.17-4.52,1.76-6.78-2.4-.12-4.81-.11-7.23,0Z" transform="translate(-14.9 -13.11)"/><path class="cls-1" d="M201.21,66.11c2.44-.09,4.88-.2,7.31-.26l1.76-6.79c-2.44.06-4.87.18-7.31.26Z" transform="translate(-14.9 -13.11)"/><path class="cls-2" d="M194,66.2c2.41,0,4.83,0,7.26-.09L203,59.32c-2.43.08-4.86.14-7.27.1C195.12,61.68,194.53,63.94,194,66.2Z" transform="translate(-14.9 -13.11)"/><path class="cls-1" d="M186.83,65.71a64.65,64.65,0,0,0,7.12.49c.58-2.26,1.17-4.52,1.75-6.78a69.76,69.76,0,0,1-7.11-.49C188,61.19,187.42,63.45,186.83,65.71Z" transform="translate(-14.9 -13.11)"/><path class="cls-2" d="M179.94,64.35a48.8,48.8,0,0,0,6.89,1.36c.59-2.26,1.17-4.52,1.76-6.78a49.7,49.7,0,0,1-6.89-1.37C181.11,59.82,180.53,62.09,179.94,64.35Z" transform="translate(-14.9 -13.11)"/><path class="cls-1" d="M173.3,62a51.8,51.8,0,0,0,6.64,2.33c.59-2.26,1.17-4.53,1.76-6.79a50.75,50.75,0,0,1-6.64-2.33C174.47,57.5,173.89,59.76,173.3,62Z" transform="translate(-14.9 -13.11)"/><path class="cls-2" d="M166.88,58.86A70.66,70.66,0,0,0,173.3,62c.59-2.26,1.17-4.52,1.76-6.79a70.83,70.83,0,0,1-6.43-3.16Z" transform="translate(-14.9 -13.11)"/><path class="cls-1" d="M160.58,55.19c2.09,1.26,4.18,2.51,6.3,3.67l1.75-6.79c-2.12-1.16-4.21-2.41-6.29-3.67C161.75,50.66,161.17,52.93,160.58,55.19Z" transform="translate(-14.9 -13.11)"/><path class="cls-2" d="M240.81,81c2.11,1.21,4.19,2.48,6.28,3.74.58-2.26,1.16-4.53,1.75-6.79-2.09-1.26-4.17-2.53-6.28-3.74Z" transform="translate(-14.9 -13.11)"/><path class="cls-1" d="M234.44,77.68c2.16,1,4.27,2.15,6.37,3.36l1.75-6.79c-2.09-1.2-4.21-2.34-6.37-3.36Q235.31,74.29,234.44,77.68Z" transform="translate(-14.9 -13.11)"/><path class="cls-2" d="M227.87,75.08a54,54,0,0,1,6.57,2.6q.87-3.39,1.75-6.79a55.7,55.7,0,0,0-6.57-2.6C229,70.55,228.45,72.81,227.87,75.08Z" transform="translate(-14.9 -13.11)"/><path class="cls-1" d="M221.05,73.42a48.43,48.43,0,0,1,6.82,1.66c.58-2.27,1.17-4.53,1.75-6.79a48.29,48.29,0,0,0-6.81-1.66C222.22,68.89,221.64,71.15,221.05,73.42Z" transform="translate(-14.9 -13.11)"/><path class="cls-2" d="M214,72.68a56.9,56.9,0,0,1,7.05.74c.59-2.27,1.17-4.53,1.76-6.79a61.18,61.18,0,0,0-7.06-.74Z" transform="translate(-14.9 -13.11)"/><path class="cls-1" d="M206.77,72.64c2.42-.06,4.84-.07,7.23,0l1.75-6.79c-2.39-.11-4.8-.1-7.23,0C207.94,68.12,207.35,70.38,206.77,72.64Z" transform="translate(-14.9 -13.11)"/><path class="cls-2" d="M199.46,72.9c2.44-.09,4.87-.2,7.31-.26.58-2.26,1.17-4.52,1.75-6.79-2.43.06-4.87.17-7.31.26Z" transform="translate(-14.9 -13.11)"/><path class="cls-1" d="M192.19,73c2.41.05,4.84,0,7.27-.09l1.75-6.79c-2.43.08-4.85.14-7.26.09C193.36,68.47,192.78,70.73,192.19,73Z" transform="translate(-14.9 -13.11)"/><path class="cls-2" d="M185.08,72.5a64.47,64.47,0,0,0,7.11.49c.59-2.26,1.17-4.52,1.76-6.79a64.65,64.65,0,0,1-7.12-.49C186.25,68,185.66,70.24,185.08,72.5Z" transform="translate(-14.9 -13.11)"/><path class="cls-1" d="M178.19,71.14a48.53,48.53,0,0,0,6.89,1.36c.58-2.26,1.17-4.52,1.75-6.79a48.8,48.8,0,0,1-6.89-1.36Z" transform="translate(-14.9 -13.11)"/><path class="cls-2" d="M171.55,68.81a51.27,51.27,0,0,0,6.64,2.33l1.75-6.79A51.8,51.8,0,0,1,173.3,62Z" transform="translate(-14.9 -13.11)"/><path class="cls-1" d="M165.12,65.65c2.11,1.16,4.25,2.23,6.43,3.16L173.3,62a70.66,70.66,0,0,1-6.42-3.16Z" transform="translate(-14.9 -13.11)"/><path class="cls-2" d="M158.83,62c2.08,1.26,4.17,2.5,6.29,3.67l1.76-6.79c-2.12-1.16-4.21-2.41-6.3-3.67C160,57.45,159.41,59.71,158.83,62Z" transform="translate(-14.9 -13.11)"/><path class="cls-1" d="M239.06,87.83c2.1,1.21,4.18,2.48,6.27,3.74l1.76-6.79c-2.09-1.26-4.17-2.53-6.28-3.74C240.23,83.3,239.64,85.56,239.06,87.83Z" transform="translate(-14.9 -13.11)"/><path class="cls-2" d="M232.68,84.47c2.16,1,4.28,2.15,6.38,3.36.58-2.27,1.17-4.53,1.75-6.79-2.1-1.21-4.21-2.34-6.37-3.36C233.85,79.94,233.27,82.21,232.68,84.47Z" transform="translate(-14.9 -13.11)"/><path class="cls-1" d="M226.11,81.86a54.42,54.42,0,0,1,6.57,2.61c.59-2.26,1.17-4.53,1.76-6.79a54,54,0,0,0-6.57-2.6Z" transform="translate(-14.9 -13.11)"/><path class="cls-2" d="M219.3,80.21a49.33,49.33,0,0,1,6.81,1.65l1.76-6.78a48.43,48.43,0,0,0-6.82-1.66C220.47,75.68,219.88,77.94,219.3,80.21Z" transform="translate(-14.9 -13.11)"/><path class="cls-1" d="M212.25,79.47a57.1,57.1,0,0,1,7.05.74c.58-2.27,1.17-4.53,1.75-6.79a56.9,56.9,0,0,0-7.05-.74C213.42,75,212.83,77.21,212.25,79.47Z" transform="translate(-14.9 -13.11)"/><path class="cls-2" d="M205,79.43c2.43-.06,4.84-.07,7.24,0,.58-2.26,1.17-4.52,1.75-6.79-2.39-.11-4.81-.1-7.23,0Z" transform="translate(-14.9 -13.11)"/><path class="cls-1" d="M197.71,79.69c2.43-.09,4.87-.2,7.3-.26l1.76-6.79c-2.44.06-4.87.17-7.31.26C198.88,75.16,198.29,77.42,197.71,79.69Z" transform="translate(-14.9 -13.11)"/><path class="cls-2" d="M190.44,79.78c2.41,0,4.83,0,7.27-.09.58-2.27,1.17-4.53,1.75-6.79-2.43.08-4.86.14-7.27.09C191.61,75.26,191,77.52,190.44,79.78Z" transform="translate(-14.9 -13.11)"/><path class="cls-1" d="M183.32,79.29a64.65,64.65,0,0,0,7.12.49c.58-2.26,1.17-4.52,1.75-6.79a64.47,64.47,0,0,1-7.11-.49C184.49,74.77,183.91,77,183.32,79.29Z" transform="translate(-14.9 -13.11)"/><path class="cls-2" d="M176.43,77.93a50.26,50.26,0,0,0,6.89,1.36c.59-2.26,1.17-4.52,1.76-6.79a48.53,48.53,0,0,1-6.89-1.36C177.6,73.4,177,75.66,176.43,77.93Z" transform="translate(-14.9 -13.11)"/><path class="cls-1" d="M169.79,75.6a53.38,53.38,0,0,0,6.64,2.33c.59-2.27,1.17-4.53,1.76-6.79a51.27,51.27,0,0,1-6.64-2.33C171,71.07,170.38,73.34,169.79,75.6Z" transform="translate(-14.9 -13.11)"/><path class="cls-2" d="M163.37,72.44c2.11,1.16,4.24,2.23,6.42,3.16.59-2.26,1.17-4.53,1.76-6.79-2.18-.93-4.32-2-6.43-3.16Z" transform="translate(-14.9 -13.11)"/><path class="cls-1" d="M157.07,68.77c2.09,1.26,4.18,2.5,6.3,3.67l1.75-6.79c-2.12-1.17-4.21-2.41-6.29-3.67C158.24,64.24,157.66,66.5,157.07,68.77Z" transform="translate(-14.9 -13.11)"/><path class="cls-1" d="M256.89,43.11c-1.75-1.06-3.55-2.15-5.34-3.18-2.36-1.35-4.46-2.45-6.41-3.37a56,56,0,0,0-6.62-2.62,48.49,48.49,0,0,0-6.87-1.68,60.9,60.9,0,0,0-7.11-.74c-2.13-.1-4.44-.11-7.26,0-1.59,0-3.21.1-4.77.16l-2.54.1c-2.14.07-4.67.14-7.24.09a65.54,65.54,0,0,1-7.07-.48A49.43,49.43,0,0,1,188.83,30a50.27,50.27,0,0,1-6.59-2.31,69,69,0,0,1-6.39-3.14c-2.19-1.2-4.39-2.52-6.28-3.66l-.49-.3L156.58,69l.27.16c1.9,1.14,4.1,2.47,6.31,3.68s4.43,2.31,6.47,3.18a51.84,51.84,0,0,0,6.69,2.35l.65.17a51.21,51.21,0,0,0,6.3,1.21,67.17,67.17,0,0,0,7.16.49c2.6.05,5.14,0,7.29-.1l2.55-.09c1.56-.06,3.17-.12,4.76-.16,2.8-.07,5.08-.06,7.2,0a55.3,55.3,0,0,1,7,.73A48.14,48.14,0,0,1,226,82.27a54.47,54.47,0,0,1,6.52,2.59c1.93.9,4,2,6.34,3.34,1.79,1,3.59,2.11,5.33,3.17l1.43.86,12.5-48.38ZM244.61,90.64c-1.74-1.06-3.55-2.15-5.34-3.18l-.1-.06c-2.32-1.33-4.38-2.41-6.31-3.31l-.07,0a54.84,54.84,0,0,0-6.55-2.59h0c-.89-.28-1.79-.55-2.7-.78-1.36-.35-2.73-.65-4.12-.88h0a57.53,57.53,0,0,0-7-.74h-.1c-2.1-.1-4.37-.12-7.14,0H205c-1.58,0-3.2.1-4.77.15l-2.41.1h-.13c-2.11.07-4.6.14-7.14.1h-.1a67.19,67.19,0,0,1-7-.48h-.05a50.16,50.16,0,0,1-6.84-1.35h0A53.24,53.24,0,0,1,170,75.21l-.06,0c-2-.85-4.06-1.87-6.33-3.11l-.09-.06c-2.07-1.13-4.12-2.36-5.92-3.44l1.65-6.36L161,55.42l1.76-6.79,1.75-6.79,1.75-6.79L168,28.26l1.64-6.35c1.78,1.07,3.8,2.27,5.82,3.38l.1.05c2.28,1.25,4.36,2.27,6.36,3.13l.06,0a52.58,52.58,0,0,0,6.64,2.33h0a52,52,0,0,0,6.88,1.37h.06a65.41,65.41,0,0,0,7.06.49h.1c2.54,0,5,0,7.16-.1H210l2.54-.09c1.52-.07,3.1-.12,4.64-.16h.12c2.76-.07,5,0,7.12,0h.09a56.79,56.79,0,0,1,7,.72h0a48.17,48.17,0,0,1,6.75,1.65h0a54,54,0,0,1,6.5,2.57l.07,0c1.91.9,4,2,6.27,3.31a.33.33,0,0,1,.1.06c1.76,1,3.52,2.07,5.23,3.1l.67.41-1.65,6.36-1.75,6.78L252,64.18,250.21,71l-1.75,6.79-1.76,6.79-1.64,6.36Z" transform="translate(-14.9 -13.11)"/><polygon class="cls-1" points="117.16 130.07 119.66 130.07 110.95 163.78 108.61 163.18 117.16 130.07"/><polygon class="cls-1" points="152.19 4.16 151.86 5.42 130.11 89.61 127.61 89.61 149.52 4.83 149.85 3.55 152.19 4.16"/><path class="cls-1" d="M163.53,15.16a2.74,2.74,0,1,0,3.34-2A2.74,2.74,0,0,0,163.53,15.16Z" transform="translate(-14.9 -13.11)"/><path class="cls-1" d="M95.79,117.36l-1.07,3.24h7.89L101,125.41H93.14l-2,6.05H84.78L91,112.56h15.36l-1.58,4.8Z" transform="translate(-14.9 -13.11)"/><path class="cls-1" d="M108.39,112.56h6.37l-6.22,18.9h-6.37Z" transform="translate(-14.9 -13.11)"/><path class="cls-1" d="M136.47,112.56l-6.22,18.9H125l-4.36-8.59-2.82,8.59h-6.21l6.22-18.9h5.24l4.35,8.58,2.83-8.58Z" transform="translate(-14.9 -13.11)"/><path class="cls-1" d="M139.54,112.56h6.38l-6.22,18.9h-6.38Z" transform="translate(-14.9 -13.11)"/><path class="cls-1" d="M145.28,131.36a8.59,8.59,0,0,1-3.2-1.42l3.58-4.64a9.32,9.32,0,0,0,2.61,1.26,10.48,10.48,0,0,0,3.06.47,5.79,5.79,0,0,0,2-.26,1.31,1.31,0,0,0,.82-.77.67.67,0,0,0-.45-.89,12.83,12.83,0,0,0-2.23-.65,20.58,20.58,0,0,1-3.32-1,3.88,3.88,0,0,1-2-1.73,4,4,0,0,1,0-3.25,8.09,8.09,0,0,1,2.06-3.24A10.39,10.39,0,0,1,152,113a14.59,14.59,0,0,1,5.1-.84,15.66,15.66,0,0,1,3.68.42,8.49,8.49,0,0,1,2.9,1.23l-3.43,4.62a9.15,9.15,0,0,0-4.81-1.41c-1.63,0-2.58.4-2.84,1.19-.13.38,0,.66.45.85a12,12,0,0,0,2.2.61,19.59,19.59,0,0,1,3.34.93,4,4,0,0,1,2,1.72,3.9,3.9,0,0,1,0,3.24,8,8,0,0,1-2.06,3.22,10.58,10.58,0,0,1-3.74,2.3,14.36,14.36,0,0,1-5.1.85A17.68,17.68,0,0,1,145.28,131.36Z" transform="translate(-14.9 -13.11)"/><path class="cls-1" d="M185.36,112.56l-6.22,18.9h-6.37l2.29-7h-5.88l-2.29,7h-6.38l6.22-18.9h6.38l-2.21,6.69h5.89l2.2-6.69Z" transform="translate(-14.9 -13.11)"/><polygon class="cls-1" points="167.03 95 105.31 95 105.6 94 167.32 94 167.03 95"/><polygon class="cls-1" points="125.06 125.55 63.34 125.55 63.63 124.55 125.34 124.55 125.06 125.55"/></svg>