<svg xmlns="http://www.w3.org/2000/svg" viewBox="0 0 101.9 234.22"><defs><style>.cls-1{fill:#888;}.cls-1,.cls-2,.cls-3,.cls-4,.cls-5,.cls-6,.cls-7,.cls-8{fill-rule:evenodd;}.cls-2{fill:#a37d73;}.cls-3{fill:#170603;}.cls-4{fill:#bd9585;}.cls-5{fill:#53362b;}.cls-6{fill:#6f3e31;}.cls-7{fill:#009844;}.cls-8{fill:#007a3c;}</style></defs><g id="OBJECT"><path class="cls-1" d="M129.48,274.54c-4.94,0-9,.85-9,1.88s4,1.87,9,1.87" transform="translate(-109.05 -47.89)"/><polygon class="cls-2" points="5.18 23.69 21.47 23.69 21.47 228.93 21.47 231.53 21.4 231.6 21.39 231.61 21.3 231.68 21.27 231.71 21.21 231.76 21.14 231.81 21.12 231.83 21.02 231.9 20.82 232.04 20.72 232.11 20.72 232.11 20.62 232.18 20.57 232.21 20.51 232.25 20.42 232.31 20.41 232.31 20.29 232.38 20.25 232.4 20.18 232.44 20.09 232.49 20.06 232.51 19.95 232.57 19.92 232.58 19.83 232.63 19.75 232.67 19.7 232.69 19.58 232.75 19.57 232.76 19.45 232.81 19.39 232.84 19.33 232.87 19.2 232.92 19.2 232.92 19.06 232.98 19.01 233 18.93 233.03 18.82 233.08 18.79 233.09 18.66 233.14 18.62 233.16 18.52 233.19 18.42 233.23 18.37 233.24 18.23 233.29 18.21 233.3 18.08 233.34 18 233.37 17.93 233.39 17.79 233.43 17.79 233.43 17.64 233.48 17.57 233.5 17.48 233.52 17.35 233.56 17.33 233.56 17.17 233.61 17.13 233.62 17.02 233.65 16.9 233.68 16.86 233.69 16.7 233.72 16.67 233.73 16.54 233.76 16.44 233.78 16.37 233.79 16.21 233.83 16.2 233.83 16.04 233.86 15.96 233.88 15.87 233.89 15.72 233.92 15.7 233.92 15.53 233.95 15.47 233.96 15.36 233.98 15.23 234 15.19 234 15.01 234.03 14.97 234.03 14.84 234.05 14.72 234.06 14.66 234.07 14.48 234.09 14.47 234.09 14.3 234.11 14.21 234.12 14.12 234.13 13.95 234.14 13.94 234.15 13.76 234.16 13.69 234.16 13.58 234.17 13.42 234.18 13.39 234.18 13.21 234.2 13.16 234.2 12.89 234.21 12.83 234.21 12.64 234.22 12.62 234.22 12.45 234.22 12.35 234.22 12.26 234.22 12.07 234.22 11.95 234.22 11.83 234.22 11.8 234.22 11.71 234.22 11.58 234.22 11.53 234.22 11.46 234.22 11.34 234.21 11.26 234.21 11.22 234.21 11.1 234.2 10.99 234.2 10.98 234.2 10.86 234.19 10.74 234.18 10.72 234.18 10.62 234.18 10.5 234.17 10.46 234.16 10.38 234.16 10.26 234.15 10.2 234.14 10.15 234.14 10.03 234.13 9.94 234.12 9.91 234.12 9.8 234.11 9.68 234.09 9.68 234.09 9.57 234.08 9.45 234.07 9.34 234.06 9.22 234.04 9.17 234.03 9.11 234.03 9 234.01 8.92 234 8.89 233.99 8.78 233.98 8.67 233.96 8.67 233.96 8.56 233.94 8.45 233.92 8.43 233.92 8.34 233.9 8.23 233.88 8.19 233.88 8.12 233.86 8.01 233.84 7.95 233.83 7.91 233.82 7.8 233.8 7.69 233.78 7.59 233.75 7.48 233.73 7.38 233.71 7.28 233.68 7.25 233.68 7.17 233.66 7.07 233.63 7.02 233.62 6.97 233.61 6.87 233.58 6.77 233.55 6.67 233.53 6.58 233.5 6.57 233.5 6.47 233.47 6.38 233.44 6.28 233.41 6.18 233.38 5.81 233.26 5.73 233.23 5.72 233.22 5.63 233.19 5.54 233.16 5.45 233.12 5.36 233.09 5.27 233.06 5.18 233.02 5.18 228.8 5.18 23.69"/><path class="cls-3" d="M114.23,71.58h16.29V73a13.34,13.34,0,0,1-16.29,0Z" transform="translate(-109.05 -47.89)"/><polygon class="cls-4" points="13.33 23.69 5.18 23.69 5.18 228.93 5.18 231.53 5.26 231.6 5.26 231.6 5.34 231.67 5.38 231.71 5.42 231.73 5.5 231.8 5.51 231.81 5.58 231.86 5.67 231.93 5.75 231.99 5.84 232.05 5.93 232.11 5.93 232.11 6.03 232.18 6.08 232.21 6.12 232.24 6.22 232.29 6.24 232.31 6.32 232.35 6.4 232.4 6.42 232.41 6.52 232.47 6.56 232.49 6.63 232.53 6.73 232.58 6.73 232.58 6.84 232.64 6.9 232.67 6.95 232.69 7.06 232.75 7.08 232.76 7.17 232.8 7.26 232.84 7.29 232.85 7.41 232.9 7.45 232.92 7.52 232.95 7.64 233 7.64 233 7.76 233.05 7.83 233.08 7.88 233.1 8.01 233.15 8.03 233.16 8.13 233.19 8.23 233.23 8.26 233.24 8.39 233.28 8.44 233.3 8.52 233.33 8.65 233.37 8.65 233.37 8.78 233.41 8.86 233.43 8.92 233.45 9.05 233.49 9.08 233.5 9.19 233.53 9.3 233.56 9.33 233.57 9.47 233.6 9.53 233.62 9.61 233.64 9.75 233.68 9.75 233.68 9.89 233.71 9.98 233.73 10.04 233.74 10.19 233.77 10.22 233.78 10.33 233.81 10.45 233.83 10.48 233.84 10.63 233.86 10.69 233.88 10.78 233.89 10.93 233.92 11.09 233.94 11.18 233.96 11.24 233.97 11.39 233.99 11.43 234 11.55 234.02 11.68 234.03 11.71 234.04 11.86 234.06 12.02 234.08 12.18 234.09 12.18 234.09 12.34 234.11 12.5 234.13 12.67 234.14 12.7 234.14 12.83 234.16 12.96 234.16 12.99 234.17 13.16 234.18 13.23 234.18 13.33 234.19 13.33 228.86 13.33 23.69"/><path class="cls-5" d="M122.38,71.58h-8.14V73a13.25,13.25,0,0,0,8.14,2.77Z" transform="translate(-109.05 -47.89)"/><path class="cls-2" d="M122.38,47.89a13.33,13.33,0,1,1-13.33,13.32A13.32,13.32,0,0,1,122.38,47.89Z" transform="translate(-109.05 -47.89)"/><path class="cls-4" d="M115.7,72.74a13.32,13.32,0,1,1,13.36-23Z" transform="translate(-109.05 -47.89)"/><path class="cls-5" d="M135.7,61.21a13.33,13.33,0,1,1-26.65,0c0,9.5,12.14,10.37,13.27,10.37C126.78,71.58,135.7,69.84,135.7,61.21Z" transform="translate(-109.05 -47.89)"/><path class="cls-6" d="M109.05,61.21a13.33,13.33,0,0,0,13.33,13.33v-3C117.9,71.57,109.05,68.85,109.05,61.21Z" transform="translate(-109.05 -47.89)"/><path class="cls-7" d="M114.24,74.54a19.45,19.45,0,0,0,8.14,2.06,15.12,15.12,0,0,0,8.14-2.06L211,113.41l-80.43,38.87a19.35,19.35,0,0,1-8.14,2.06,21.63,21.63,0,0,1-8.14-2.06Z" transform="translate(-109.05 -47.89)"/><path class="cls-8" d="M130.52,152.28h0a19.35,19.35,0,0,1-8.14,2.06V76.6h0a15.12,15.12,0,0,0,8.14-2.06" transform="translate(-109.05 -47.89)"/></g></svg>