<svg id="Layer_1" data-name="Layer 1" xmlns="http://www.w3.org/2000/svg" viewBox="0 0 57.64 132.49"><defs><style>.cls-1{fill:#888;}.cls-1,.cls-2,.cls-3,.cls-4,.cls-5,.cls-6,.cls-7,.cls-8{fill-rule:evenodd;}.cls-2{fill:#a37e74;}.cls-3{fill:#1b0f0e;}.cls-4{fill:#bc9585;}.cls-5{fill:#54372b;}.cls-6{fill:#703f33;}.cls-7{fill:#e7363b;}.cls-8{fill:#cc2027;}</style></defs><path class="cls-1" d="M45.24,139.46c-2.8,0-5.08.48-5.08,1.06s2.28,1.06,5.08,1.06" transform="translate(-33.68 -11.26)"/><polygon class="cls-2" points="2.93 13.4 12.14 13.4 12.14 129.49 12.14 130.97 12.1 131 12.1 131.01 12.05 131.05 12.03 131.06 12 131.09 11.96 131.12 11.95 131.13 11.89 131.17 11.78 131.25 11.72 131.29 11.72 131.29 11.66 131.33 11.63 131.35 11.6 131.37 11.55 131.4 11.54 131.41 11.48 131.44 11.46 131.46 11.41 131.48 11.36 131.51 11.35 131.52 11.28 131.55 11.27 131.56 11.21 131.59 11.17 131.61 11.15 131.62 11.07 131.66 11.07 131.66 11 131.69 10.97 131.71 10.93 131.72 10.86 131.75 10.86 131.75 10.78 131.78 10.75 131.8 10.71 131.82 10.64 131.84 10.63 131.85 10.55 131.88 10.53 131.88 10.47 131.91 10.42 131.93 10.39 131.94 10.31 131.96 10.3 131.97 10.23 131.99 10.18 132 10.14 132.01 10.06 132.04 10.06 132.04 9.98 132.07 9.94 132.08 9.89 132.09 9.81 132.11 9.8 132.12 9.71 132.14 9.69 132.15 9.63 132.16 9.56 132.18 9.54 132.19 9.45 132.21 9.43 132.21 9.35 132.22 9.3 132.24 9.26 132.25 9.17 132.26 9.16 132.27 9.07 132.28 9.03 132.29 8.98 132.3 8.89 132.32 8.88 132.32 8.79 132.33 8.75 132.34 8.69 132.35 8.61 132.36 8.59 132.36 8.49 132.38 8.47 132.38 8.39 132.39 8.33 132.4 8.29 132.4 8.19 132.41 8.18 132.42 8.09 132.43 8.04 132.43 7.99 132.44 7.89 132.44 7.89 132.44 7.78 132.45 7.74 132.46 7.68 132.46 7.59 132.47 7.58 132.47 7.47 132.47 7.44 132.47 7.29 132.48 7.26 132.48 7.15 132.48 7.14 132.48 7.04 132.49 6.99 132.49 6.94 132.49 6.83 132.49 6.76 132.49 6.69 132.49 6.67 132.49 6.62 132.49 6.55 132.49 6.52 132.48 6.48 132.48 6.41 132.48 6.37 132.48 6.35 132.48 6.28 132.48 6.22 132.47 6.21 132.47 6.14 132.47 6.07 132.47 6.07 132.47 6.01 132.46 5.94 132.46 5.92 132.46 5.87 132.45 5.81 132.45 5.77 132.44 5.74 132.44 5.67 132.44 5.62 132.43 5.61 132.43 5.54 132.42 5.48 132.42 5.47 132.42 5.41 132.41 5.35 132.4 5.28 132.39 5.22 132.38 5.19 132.38 5.16 132.38 5.09 132.37 5.04 132.36 5.03 132.36 4.96 132.35 4.91 132.34 4.9 132.34 4.84 132.33 4.78 132.32 4.77 132.32 4.72 132.31 4.65 132.3 4.63 132.29 4.59 132.28 4.53 132.27 4.49 132.27 4.47 132.26 4.41 132.25 4.35 132.24 4.29 132.22 4.23 132.21 4.17 132.2 4.12 132.18 4.1 132.18 4.06 132.17 4 132.15 3.97 132.15 3.94 132.14 3.89 132.12 3.83 132.11 3.77 132.09 3.72 132.08 3.72 132.08 3.66 132.06 3.61 132.04 3.55 132.03 3.5 132.01 3.29 131.94 3.24 131.93 3.23 131.92 3.18 131.9 3.13 131.88 3.08 131.87 3.03 131.85 2.98 131.83 2.93 131.81 2.93 129.42 2.93 13.4"/><path class="cls-3" d="M36.61,24.66h9.21v.81a7.54,7.54,0,0,1-9.21,0Z" transform="translate(-33.68 -11.26)"/><polygon class="cls-4" points="7.54 13.4 2.93 13.4 2.93 129.49 2.93 130.97 2.97 131 2.98 131.01 3.02 131.04 3.04 131.06 3.06 131.08 3.11 131.12 3.12 131.12 3.16 131.15 3.21 131.19 3.25 131.22 3.31 131.26 3.35 131.29 3.36 131.29 3.41 131.33 3.44 131.35 3.46 131.36 3.52 131.4 3.53 131.4 3.58 131.43 3.62 131.46 3.63 131.46 3.69 131.5 3.71 131.51 3.75 131.53 3.81 131.56 3.81 131.56 3.87 131.59 3.9 131.61 3.93 131.62 3.99 131.65 4.01 131.66 4.06 131.68 4.11 131.71 4.12 131.71 4.19 131.74 4.21 131.75 4.25 131.77 4.32 131.8 4.32 131.8 4.39 131.82 4.43 131.84 4.46 131.85 4.53 131.88 4.54 131.88 4.6 131.91 4.66 131.93 4.67 131.93 4.75 131.96 4.78 131.97 4.82 131.98 4.89 132 4.89 132 4.97 132.03 5.01 132.04 5.04 132.05 5.12 132.07 5.14 132.08 5.2 132.09 5.26 132.11 5.28 132.12 5.36 132.14 5.39 132.15 5.44 132.16 5.52 132.18 5.52 132.18 5.6 132.2 5.65 132.21 5.68 132.22 5.76 132.23 5.78 132.24 5.84 132.25 5.91 132.27 5.93 132.27 6.01 132.28 6.05 132.29 6.1 132.3 6.18 132.32 6.27 132.33 6.32 132.34 6.36 132.34 6.45 132.36 6.46 132.36 6.53 132.37 6.61 132.38 6.62 132.38 6.71 132.39 6.8 132.41 6.89 132.42 6.89 132.42 6.98 132.43 7.07 132.43 7.17 132.44 7.18 132.44 7.26 132.45 7.33 132.46 7.35 132.46 7.44 132.46 7.48 132.47 7.54 132.47 7.54 129.46 7.54 13.4"/><path class="cls-5" d="M41.22,24.66H36.61v.81A7.55,7.55,0,0,0,41.22,27Z" transform="translate(-33.68 -11.26)"/><path class="cls-2" d="M41.22,11.26a7.54,7.54,0,1,1-7.54,7.53A7.54,7.54,0,0,1,41.22,11.26Z" transform="translate(-33.68 -11.26)"/><path class="cls-4" d="M37.44,25.31a7.54,7.54,0,0,1,7.56-13Z" transform="translate(-33.68 -11.26)"/><path class="cls-5" d="M48.76,18.79a7.54,7.54,0,1,1-15.08,0c0,5.37,6.87,5.87,7.51,5.87C43.71,24.66,48.76,23.67,48.76,18.79Z" transform="translate(-33.68 -11.26)"/><path class="cls-6" d="M33.68,18.79a7.54,7.54,0,0,0,7.54,7.54V24.66C38.69,24.65,33.68,23.11,33.68,18.79Z" transform="translate(-33.68 -11.26)"/><path class="cls-7" d="M36.61,26.33a11,11,0,0,0,4.61,1.17,8.51,8.51,0,0,0,4.6-1.17l45.5,22-45.5,22a10.78,10.78,0,0,1-4.6,1.17,12.35,12.35,0,0,1-4.61-1.17Z" transform="translate(-33.68 -11.26)"/><path class="cls-8" d="M45.82,70.3h0a10.78,10.78,0,0,1-4.6,1.17v-44h0a8.51,8.51,0,0,0,4.6-1.17" transform="translate(-33.68 -11.26)"/></svg>